<?xml version="1.0" encoding="utf-8"?>
<!-- Generator: Adobe Illustrator 18.1.1, SVG Export Plug-In . SVG Version: 6.00 Build 0)  -->
<svg version="1.1" id="Слой_1" xmlns="http://www.w3.org/2000/svg" xmlns:xlink="http://www.w3.org/1999/xlink" x="0px" y="0px"
	 viewBox="0 0 48 96" enable-background="new 0 0 48 96" xml:space="preserve">
<polygon fill="#FFFFFF" points="34,57 33.355,57.645 36.709,61 33.355,64.355 34,65 38,61 "/>
<polygon fill="#FFFFFF" points="9.813,57 9.168,57.645 12.522,61 9.168,64.355 9.813,65 13.813,61 "/>
<polygon fill="#FFFFFF" points="39,13 36,13 36,10 35,10 35,13 32,13 32,14 35,14 35,17 36,17 36,14 39,14 "/>
<polygon fill="#FFFFFF" points="15,13 12,13 12,10 11,10 11,13 8,13 8,14 11,14 11,17 12,17 12,14 15,14 "/>
<polygon fill="#878787" points="15,12 12,12 12,9 11,9 11,12 8,12 8,13 11,13 11,16 12,16 12,13 15,13 "/>
<polygon fill="#4A4A49" points="39,12 36,12 36,9 35,9 35,12 32,12 32,13 35,13 35,16 36,16 36,13 39,13 "/>
<rect x="8" y="36" fill="#878787" width="7" height="1"/>
<rect x="32" y="36" fill="#4A4A49" width="7" height="1"/>
<rect x="8" y="37" fill="#FFFFFF" width="7" height="1"/>
<rect x="32" y="37" fill="#FFFFFF" width="7" height="1"/>
<path display="none" fill="#646363" d="M8.906,59.738L5.26,56.098c-0.131-0.131-0.344-0.131-0.475,0
	c-0.132,0.131-0.132,0.343,0,0.474L8.218,60l-3.433,3.427c-0.132,0.131-0.132,0.343,0,0.474c0.131,0.131,0.344,0.131,0.475,0
	l3.645-3.639C8.977,60.191,9.006,60.095,8.999,60C9.006,59.906,8.977,59.81,8.906,59.738z"/>
<polygon fill="#706F6F" points="10,56 9.355,56.645 12.709,60 9.355,63.355 10,64 14,60 "/>
<polygon fill="#4A4A49" points="34,56 33.355,56.645 36.709,60 33.355,63.355 34,64 38,60 "/>
</svg>
